<svg width="400" height="400" viewBox="0 0 400 400" xmlns="http://www.w3.org/2000/svg">
  <path d="M200 40 L338.5 120 V280 L200 360 L61.5 280 V120 Z" fill="#424242" />
  
  <path d="M200 80 L303.9 140 V260 L200 320 L96.1 260 V140 Z" fill="none" stroke="white" stroke-width="12" />

  <g fill="#9E9E9E">
    <circle cx="200" cy="200" r="45" stroke="#424242" stroke-width="8" />
    
    <g stroke="#424242" stroke-width="10">
      <line x1="200" y1="155" x2="200" y2="80" />
      <circle cx="200" cy="80" r="28" stroke="none" />
      
      <line x1="239" y1="177.5" x2="303.9" y2="140" />
      <circle cx="303.9" cy="140" r="28" stroke="none" />
      
      <line x1="239" y1="222.5" x2="303.9" y2="260" />
      <circle cx="303.9" cy="260" r="28" stroke="none" />
      
      <line x1="200" y1="245" x2="200" y2="320" />
      <circle cx="200" cy="320" r="28" stroke="none" />
      
      <line x1="161" y1="222.5" x2="96.1" y2="260" />
      <circle cx="96.1" cy="260" r="28" stroke="none" />
      
      <line x1="161" y1="177.5" x2="96.1" y2="140" />
      <circle cx="96.1" cy="140" r="28" stroke="none" />
    </g>
  </g>
</svg>
